inDegrees=yes
name=ik_S53_A10_T01
DataType=double
version=3
OpenSimVersion=4.3-2021-08-27-4bc7ad9
endheader
time	pelvis_tilt	pelvis_list	pelvis_rotation	pelvis_tx	pelvis_ty	pelvis_tz	hip_flexion_r	hip_adduction_r	hip_rotation_r	knee_angle_r	knee_angle_r_beta	ankle_angle_r	subtalar_angle_r	mtp_angle_r	hip_flexion_l	hip_adduction_l	hip_rotation_l	knee_angle_l	knee_angle_l_beta	ankle_angle_l	subtalar_angle_l	mtp_angle_l	lumbar_extension	lumbar_bending	lumbar_rotation	arm_flex_r	arm_add_r	arm_rot_r	elbow_flex_r	pro_sup_r	wrist_flex_r	wrist_dev_r	arm_flex_l	arm_add_l	arm_rot_l	elbow_flex_l	pro_sup_l	wrist_flex_l	wrist_dev_l
0	0	0	0	0	0.9399999999999999	0	0	0	0	0	0	0	0	0	0	0	0	0	0	0	0	0	0	0	0	0	0	0	0	89.99999999963507	0	0	0	0	0	0	89.99999999869995	0	0
0.02	-1.498285391010013	-1.850218636035347	24.36802580332154	0	0.9399999999999999	0	2.447458503231256	-1.140962331563909	-0.8232508834577547	3.802702420072557	0.06636967770382263	0	0	0	2.447458503231256	-1.140962331563909	-0.8232508834577547	3.802702420072557	0.06636967770382263	0	0	0	-1.458728129813488	0.1408485032278924	7.964159085282255	18.28573058399984	2.224281688265815	23.84517838333642	27.05951591738294	65.7772734109042	0	0	20.49067222745453	0.5441239287511886	19.32558877515421	26.69091678204489	79.59735431496422	0	0
0.04	-1.462886568822519	-2.348570802457776	25.97810165647507	0	0.9399999999999999	0	27.79027604335059	-12.75538573489466	-8.567895634925767	47.42899548811464	0.8277921321811357	0	0	0	27.79027604335059	-12.75538573489466	-8.567895634925767	47.42899548811464	0.8277921321811357	0	0	0	-1.260718370947923	0.6191955232595173	6.38566268373536	18.26016901228989	2.229598402710274	23.83760299034374	27.19016199341452	65.74371595004519	0	0	20.49360843807546	0.5340066220737903	19.30668969442896	26.64616117723	79.7179838890543	0	0
0.06	-1.465910005865226	-2.342176907198557	25.98210946785598	0	0.9399999999999999	0	27.80612906437973	-12.75028483196464	-8.570123897578435	47.43403825247763	0.8278801450226719	0	0	0	27.80612906437973	-12.75028483196464	-8.570123897578435	47.43403825247763	0.8278801450226719	0	0	0	-1.261696013615546	0.6251572772829943	6.372416939434733	18.272717496845	2.233927425741489	23.85046004684817	27.16830815610393	65.73736116221362	0	0	20.48565759347469	0.5661317535399835	19.28349895869729	26.6516027621209	79.69115961422682	0	0
0.08	-1.472336330603325	-2.343335306922001	25.99259009514953	0	0.9399999999999999	0	27.83847200182446	-12.73363662073198	-8.575750208083569	47.44331807095371	0.8280421084090669	0	0	0	27.83847200182446	-12.73363662073198	-8.575750208083569	47.44331807095371	0.8280421084090669	0	0	0	-1.269182709519431	0.6240919260541463	6.368411162900945	18.2684228284885	2.226175427366634	23.85501052892975	27.23696042319241	65.7525049969926	0	0	20.49669208596996	0.5563765057508268	19.27796586148901	26.73058705545633	79.69139579067209	0	0
0.1	-1.4642175861049	-2.348167728598211	26.00644330613094	0	0.9399999999999999	0	27.83868393838316	-12.73391591488178	-8.575715708670748	47.44347008769265	0.8280447616016796	0	0	0	27.83868393838316	-12.73391591488178	-8.575715708670748	47.44347008769265	0.8280447616016796	0	0	0	-1.264188978560419	0.6164078433376811	6.362318399264246	18.27153628331596	2.253300302638328	23.85179572507147	27.16490103967185	65.7197189079283	0	0	20.49488060021839	0.5501072611595119	19.29063178088782	26.66827895674373	79.65427408818523	0	0
0.12	-1.468668793248073	-2.353474350221547	26.01265813966911	0	0.9399999999999999	0	27.85906109968197	-12.72267836939216	-8.579382214995135	47.44921870838494	0.8281450939602083	0	0	0	27.85906109968197	-12.72267836939216	-8.579382214995135	47.44921870838494	0.8281450939602083	0	0	0	-1.271343676484605	0.611932540916577	6.35761755631028	18.27383286620323	2.24379064172205	23.83231261910803	27.21208629757334	65.72162473487862	0	0	20.49912534885086	0.5468048988759531	19.27202899886649	26.72033681467963	79.64988523441657	0	0
0.14	-1.471853855105513	-2.353060647883824	26.03086134242814	0	0.9399999999999999	0	27.86932590808896	-12.71777716997262	-8.58110078570834	47.45221378253527	0.828197367865473	0	0	0	27.86932590808896	-12.71777716997262	-8.58110078570834	47.45221378253527	0.828197367865473	0	0	0	-1.274242940611313	0.6125713646410488	6.360851552508183	18.26138925611885	2.25189967071935	23.85735329851123	27.22010526991637	65.71019707288025	0	0	20.50315296623065	0.5477967482096099	19.28917433438805	26.73295462527782	79.64649782140111	0	0
0.16	-1.462551983432135	-2.358619998535083	26.04759384774042	0	0.9399999999999999	0	27.8509362484319	-12.72598825588116	-8.578105079440816	47.44684530541226	0.8281036702638584	0	0	0	27.8509362484319	-12.72598825588116	-8.578105079440816	47.44684530541226	0.8281036702638584	0	0	0	-1.267653297382344	0.605165545628313	6.361418381688787	18.24794670644152	2.266053401571116	23.85689313524595	27.13026925441128	65.6301542647716	0	0	20.48580396872348	0.5505649180285693	19.26555651381335	26.64949633113949	79.63708090780355	0	0
0.18	-1.46584722732418	-2.362855047509222	26.05829890821566	0	0.9399999999999999	0	27.88257470553204	-12.7120535959695	-8.583212037999964	47.45618270339212	0.8282666386021761	0	0	0	27.88257470553204	-12.7120535959695	-8.583212037999964	47.45618270339212	0.8282666386021761	0	0	0	-1.27386621918295	0.5997247862821857	6.354375171835467	18.26068622040832	2.287249639733933	23.88705601116736	27.12353497436115	65.56146293101143	0	0	20.49066544099621	0.5553321261249664	19.28851830639199	26.63678873909173	79.6280325627703	0	0
0.2	-1.470497900085852	-2.367060708326235	26.07629591488135	0	0.9399999999999999	0	27.907829503101	-12.69813020038034	-8.587764990190706	47.46329590211295	0.8283907873402032	0	0	0	27.907829503101	-12.69813020038034	-8.587764990190706	47.46329590211295	0.8283907873402032	0	0	0	-1.280793320108527	0.5957930201792013	6.351555019377489	18.25184057868627	2.287716339588591	23.85651485230021	27.18001806790134	65.56378743588704	0	0	20.48705676851376	0.5532975747645551	19.2468495906685	26.70319882899346	79.63820087843489	0	0
0.22	-1.456027400129419	-2.36582898711777	26.08314398213327	0	0.9399999999999999	0	27.89359001003737	-12.70460631532049	-8.585422234203824	47.45916870979081	0.8283187542453189	0	0	0	27.89359001003737	-12.70460631532049	-8.585422234203824	47.45916870979081	0.8283187542453189	0	0	0	-1.266931526767217	0.5920530036195787	6.346356570665194	18.23051038500747	2.294373240019489	23.84800303908634	27.07053706536326	65.53469792422442	0	0	20.4493238074501	0.548208543030438	19.21524135648949	26.62748540406229	79.65671096128841	0	0
0.24	-1.457572751635288	-2.36878177359171	26.0902568854053	0	0.9399999999999999	0	27.89740770520154	-12.70173791285558	-8.586237070182687	47.46016616104772	0.8283361630538801	0	0	0	27.89740770520154	-12.70173791285558	-8.586237070182687	47.46016616104772	0.8283361630538801	0	0	0	-1.269784281376456	0.5898147839700356	6.344798169340035	18.23758960715503	2.309196209110679	23.85701955051746	27.07714393215339	65.53919117229955	0	0	20.4339252748517	0.5645918722924337	19.21161928648851	26.62534931175612	79.66009540106016	0	0
0.26	-1.458833028642779	-2.36796510868946	26.10143644800007	0	0.9399999999999999	0	27.9176960744675	-12.69111796484537	-8.589797202365736	47.46597108403883	0.8284374780728997	0	0	0	27.9176960744675	-12.69111796484537	-8.589797202365736	47.46597108403883	0.8284374780728997	0	0	0	-1.271186730387547	0.5891902451900949	6.345424527192622	18.23413084424491	2.299606430861491	23.84373296210568	27.11342641686155	65.5514870270537	0	0	20.42539821979366	0.5583768651448272	19.19788251316585	26.66149639807445	79.66309322995463	0	0
0.28	-1.451012218340721	-2.361675545090717	26.11417913240386	0	0.9399999999999999	0	27.90423500978637	-12.69733357098425	-8.587567489400707	47.46208772516708	0.8283697006745511	0	0	0	27.90423500978637	-12.69733357098425	-8.587567489400707	47.46208772516708	0.8283697006745511	0	0	0	-1.261077738879511	0.5928061966571073	6.340875119024926	18.21871576177153	2.287089367720798	23.82671876984774	27.02306747528521	65.55498241262777	0	0	20.40922929570226	0.5765906943076328	19.15984433475239	26.55472162692865	79.68548824251917	0	0
0.3	-1.451483005603072	-2.363343145977296	26.12250542513025	0	0.9399999999999999	0	27.92360582292179	-12.68912141574589	-8.590631956057109	47.46792034354932	0.8284714990693335	0	0	0	27.92360582292179	-12.68912141574589	-8.590631956057109	47.46792034354932	0.8284714990693335	0	0	0	-1.26302057822926	0.5897535762561201	6.337406667797856	18.21726954559093	2.289461448581777	23.83350530598689	27.04032536995751	65.57148449082591	0	0	20.40992205306801	0.5815157520342535	19.15010125320491	26.57188998669689	79.69580226017158	0	0
0.32	-1.45705067908549	-2.364036442050585	26.12367544182204	0	0.9399999999999999	0	27.941761612159	-12.67979534001503	-8.593782087108451	47.47312420407864	0.8285623235693846	0	0	0	27.941761612159	-12.67979534001503	-8.593782087108451	47.47312420407864	0.8285623235693846	0	0	0	-1.269016042410797	0.5900598215668371	6.33486692510439	18.21414362221237	2.293885086758824	23.82181812864592	27.08724337440189	65.5852407133861	0	0	20.41270994544712	0.5846488583023912	19.1347180255862	26.61666868062954	79.70068741012786	0	0
0.34	-1.444901731806066	-2.351467170250093	26.1263904903631	0	0.9399999999999999	0	27.99315772262183	-12.65577275089128	-8.602329328778064	47.4880696393416	0.8288231706228671	4.655126503670068e-36	0	0	27.99315772262183	-12.65577275089128	-8.602329328778064	47.4880696393416	0.8288231706228671	4.655126503670068e-36	0	0	-1.255087355193463	0.5919634782553759	6.323453166901064	18.17545459568949	2.297896037956475	23.83266464291257	27.05011795361788	65.5810809872038	0	5.38806921148701e-36	20.36966339814214	0.5950711551858981	19.12396686796984	26.56819865417166	79.70415280366967	0	5.38806921148701e-36
0.36	-1.45231538353057	-2.35688007106056	26.12755155728931	0	0.9399999999999999	0	28.00570578016439	-12.6517358912057	-8.604089590887163	47.4920525828723	0.8288926861013987	5.622128759949593e-52	0	0	28.00570578016439	-12.6517358912057	-8.604089590887163	47.4920525828723	0.8288926861013987	5.622128759949593e-52	0	0	-1.264532076933028	0.5890683600614475	6.324701770953055	18.19948027148878	2.323112216406454	23.82464048034367	27.01522885892819	65.59448365902297	0	1.627353138668618e-53	20.40634143590199	0.5977917204320359	19.13700668675709	26.54057985244995	79.7065095773677	0	1.627353138668618e-53
